<svg width="200" height="220" viewBox="0 0 200 220" fill="none" xmlns="http://www.w3.org/2000/svg" role="img" aria-labelledby="babyIllustrationTitle babyIllustrationDesc">
  <title id="babyIllustrationTitle">Illustration of a peaceful swaddled baby</title>
  <desc id="babyIllustrationDesc">A stylized illustration of a sleeping baby wrapped in a green swaddle with gentle botanical accents.</desc>
  <defs>
    <linearGradient id="swaddleGradient" x1="0" y1="0" x2="0" y2="1">
      <stop offset="0%" stop-color="#B7D3C1" />
      <stop offset="100%" stop-color="#8BAE8C" />
    </linearGradient>
    <linearGradient id="cheekGradient" x1="0" y1="0" x2="1" y2="1">
      <stop offset="0%" stop-color="#F5B7B1" stop-opacity="0.75" />
      <stop offset="100%" stop-color="#F1948A" stop-opacity="0.2" />
    </linearGradient>
    <clipPath id="ovalClip">
      <ellipse cx="100" cy="110" rx="96" ry="108" />
    </clipPath>
  </defs>
  <g clip-path="url(#ovalClip)">
    <rect x="4" y="2" width="192" height="216" rx="96" fill="#F7F1E8" />
    <ellipse cx="101" cy="93" rx="58" ry="62" fill="#E8C4A2" />
    <path d="M69 98C75 110 93 114 101 114C109 114 125 110 133 98" stroke="#6D432E" stroke-width="4" stroke-linecap="round" />
    <path d="M84 84C84 81.2386 81.7614 79 79 79C76.2386 79 74 81.2386 74 84" stroke="#6D432E" stroke-width="4" stroke-linecap="round" />
    <path d="M126 84C126 81.2386 123.761 79 121 79C118.239 79 116 81.2386 116 84" stroke="#6D432E" stroke-width="4" stroke-linecap="round" />
    <path d="M90 104C94 108 108 108 112 104" stroke="#6D432E" stroke-width="3" stroke-linecap="round" />
    <ellipse cx="80" cy="98" rx="8" ry="5" fill="url(#cheekGradient)" />
    <ellipse cx="122" cy="98" rx="8" ry="5" fill="url(#cheekGradient)" />
    <path d="M50 135C60 124 90 108 114 112C140 116 164 148 166 168C168 188 148 206 118 210C88 214 56 202 42 178C28 154 40 142 50 135Z" fill="url(#swaddleGradient)" />
    <path d="M80 150C88 150 114 160 126 184" stroke="#EDF3EA" stroke-width="6" stroke-linecap="round" />
    <path d="M58 166C66 164 90 168 106 190" stroke="#EDF3EA" stroke-width="6" stroke-linecap="round" />
  </g>
  <ellipse cx="20" cy="96" rx="8" ry="18" stroke="#B5C3A8" stroke-width="4" stroke-linecap="round" />
  <ellipse cx="180" cy="96" rx="8" ry="18" stroke="#B5C3A8" stroke-width="4" stroke-linecap="round" />
  <path d="M25 60C16 58 10 46 12 36C14 26 22 20 31 22" stroke="#B5C3A8" stroke-width="4" stroke-linecap="round" />
  <path d="M175 60C184 58 190 46 188 36C186 26 178 20 169 22" stroke="#B5C3A8" stroke-width="4" stroke-linecap="round" />
</svg>
